PathFileType	4	(X/Y/Z)	D:\Share\Shared_Data\Ergonomics\Sit To Stand Pertubation\S3\Unperturbed.trc
DataRate	CameraRate	NumFrames	NumMarkers	Units	OrigDataRate	OrigDataStartFrame	OrigNumFrames	
100	100	11	18	m	100	4748	191
Frame#	Time	R_Thigh			R_ASIS			R_Pelvis			V_Sacral			L_Pelvis			L_ASIS			Clavical			R_Acromium			L_Acromium			Sternum			Torso			R_Thigh_Med			R_Thigh_Lat			R_Shank_Med			R_Shank_Lat			R_Shank			R_Heel			R_Toe			
		X1	Y1	Z1	X2	Y2	Z2	X3	Y3	Z3	X4	Y4	Z4	X5	Y5	Z5	X6	Y6	Z6	X7	Y7	Z7	X8	Y8	Z8	X9	Y9	Z9	X10	Y10	Z10	X11	Y11	Z11	X12	Y12	Z12	X13	Y13	Z13	X14	Y14	Z14	X15	Y15	Z15	X16	Y16	Z16	X17	Y17	Z17	X18	Y18	Z18	

4748	47.47	0.15267812	0.58005524	0.11840627	-0.014594456	0.64854004	0.14468195	-0.12415111	0.62947955	0.19843622	-0.23072205	0.62475867	0.012852969	-0.1213886	0.65012207	-0.18571095	-0.014627733	0.64673389	-0.13276768	-0.051759491	1.0383617	-0.0024991186	-0.10905521	1.0946997	0.17064017	-0.10285148	1.0964891	-0.16144746	-0.026181351	0.96519531	0.0052652712	-0.04813623	1.0256398	-0.06532563	0.33861517	0.4705965	0.090377884	0.31830493	0.44730627	0.20582352	0.25965564	0.10860349	0.095097366	0.23461514	0.098943062	0.17438974	0.25809589	0.27177679	0.20390176	0.18054294	0.054293324	0.12218466	0.39740686	0.05686977	0.13872084
4749	47.48	0.1525542	0.58012878	0.11847083	-0.014623116	0.6484989	0.14469109	-0.12423565	0.62952759	0.19840915	-0.2307336	0.6250224	0.012814015	-0.12149729	0.65018677	-0.18577702	-0.014749825	0.64674194	-0.13281673	-0.050620926	1.0382018	-0.0024478128	-0.10788509	1.0947164	0.17064557	-0.10133543	1.0964961	-0.16145966	-0.025347767	0.9649071	0.0052985106	-0.046994247	1.0254299	-0.065279724	0.33838034	0.46979749	0.089988197	0.31802869	0.44730322	0.20606924	0.25960025	0.10864705	0.095208908	0.23445122	0.098932281	0.17446762	0.25776791	0.27177542	0.20403584	0.1805251	0.053790661	0.12181511	0.39731177	0.057061142	0.13885727
4750	47.49	0.15240805	0.58019049	0.11855548	-0.014636039	0.64844568	0.14470552	-0.12431281	0.62958942	0.19837697	-0.23073399	0.62531799	0.012770507	-0.12159531	0.65025409	-0.18585519	-0.014853791	0.64673572	-0.13287918	-0.049362316	1.0380376	-0.0023874321	-0.10657985	1.0947294	0.17065874	-0.099679474	1.0965156	-0.16146362	-0.024415749	0.96460596	0.0053393283	-0.045734612	1.0252188	-0.065221909	0.33818109	0.46925281	0.089841759	0.31773212	0.44731705	0.20635365	0.25956268	0.10870068	0.095329132	0.2342926	0.098943314	0.17455099	0.25745071	0.27178152	0.20420251	0.18052422	0.053073746	0.12123746	0.39723083	0.057235691	0.13900508
4751	47.5	0.15223866	0.58024396	0.11866663	-0.014627784	0.64837933	0.14472672	-0.12437894	0.62966888	0.19834016	-0.2307197	0.6256463	0.01272199	-0.12167567	0.65032404	-0.18594179	-0.014931806	0.64671179	-0.13295381	-0.047976772	1.0378678	-0.0023157823	-0.10513183	1.0947349	0.17068346	-0.097882225	1.0965472	-0.16145866	-0.02337746	0.9642934	0.0053897281	-0.044350716	1.0250092	-0.065150101	0.33800931	0.46894635	0.08991835	0.31741895	0.44734534	0.2066721	0.25954587	0.10876131	0.095453613	0.23415924	0.098969734	0.17463902	0.25715353	0.27179373	0.2043961	0.18053836	0.052299618	0.12058422	0.3971687	0.057383572	0.13915929
4752	47.51	0.15204694	0.58029193	0.11880851	-0.014593665	0.64830011	0.14475496	-0.12443022	0.6297699	0.19829938	-0.23068661	0.62600879	0.012667656	-0.12173083	0.65039856	-0.18603334	-0.014976689	0.64666705	-0.13303979	-0.046457169	1.0376918	-0.0022313261	-0.10353391	1.0947299	0.17072205	-0.095941818	1.096592	-0.16144379	-0.022225281	0.9639715	0.0054507809	-0.042835461	1.0248044	-0.065064613	0.33785385	0.46883496	0.090175003	0.31709296	0.44738562	0.20701991	0.25955057	0.10882564	0.095577698	0.2340654	0.099005684	0.17473021	0.25688071	0.27180927	0.20460899	0.18056461	0.051616741	0.11998258	0.39712802	0.057497414	0.13931566
4753	47.52	0.15183524	0.58033588	0.11898244	-0.014529396	0.64820923	0.14478871	-0.12446222	0.62989606	0.19825523	-0.23063023	0.62640796	0.012606746	-0.12175285	0.65048077	-0.186127	-0.014981905	0.64660004	-0.13313695	-0.044796623	1.0375088	-0.0021334493	-0.10177901	1.0947123	0.17077509	-0.093855705	1.096653	-0.16141721	-0.02095223	0.96364142	0.0055223613	-0.041181686	1.0246064	-0.064968658	0.33770465	0.46886694	0.090563217	0.316758	0.447435	0.20739262	0.25957574	0.10889101	0.095697586	0.23401625	0.099047211	0.17482236	0.25663242	0.27182516	0.20483362	0.18059991	0.0511045	0.1195021	0.3971091	0.057572769	0.13947026
4754	47.53	0.15160701	0.58037634	0.11918656	-0.014430779	0.64810736	0.1448242	-0.12446973	0.63004993	0.19820827	-0.23054613	0.62684644	0.012539197	-0.12173395	0.65057538	-0.18622084	-0.014940853	0.64651099	-0.13324547	-0.042988712	1.0373181	-0.0020232739	-0.099860031	1.0946798	0.17084123	-0.091620003	1.0967327	-0.16137834	-0.019552015	0.96330359	0.0056028843	-0.039383266	1.0244148	-0.064867134	0.33755472	0.46899289	0.09103801	0.3164173	0.44749036	0.20778595	0.25961838	0.10895617	0.095810791	0.23400975	0.099092537	0.17491351	0.25640744	0.27183902	0.20506433	0.18064133	0.050780655	0.11916127	0.39710959	0.057608505	0.1396187
4755	47.54	0.15136638	0.58041284	0.11941612	-0.014293476	0.64799524	0.14485675	-0.12444719	0.63023309	0.1981586	-0.23043079	0.62732599	0.012465927	-0.12166689	0.65068756	-0.18631334	-0.014846204	0.64640265	-0.13336575	-0.041027283	1.0371184	-0.0019040192	-0.09777018	1.0946324	0.1709171	-0.089228378	1.09683	-0.16132944	-0.018018976	0.96295764	0.0056892715	-0.037435894	1.0242272	-0.064764809	0.33740033	0.46917197	0.091561684	0.31607364	0.44754831	0.20819551	0.25967352	0.1090213	0.095916115	0.23403914	0.099141129	0.17500313	0.25620453	0.27184961	0.20529845	0.18068629	0.05062537	0.11894897	0.39712555	0.05760688	0.13975583
4756	47.55	0.15111832	0.58044452	0.11966414	-0.014112499	0.64787372	0.14488309	-0.12438914	0.63044458	0.19810574	-0.23028156	0.62784778	0.012388363	-0.12154551	0.65082147	-0.18640201	-0.014689734	0.64628174	-0.13349803	-0.038906204	1.0369081	-0.0017799482	-0.095502808	1.0945707	0.17099782	-0.086672081	1.0969402	-0.16127472	-0.016348209	0.96260199	0.0057775488	-0.035336681	1.0240399	-0.064665398	0.33724112	0.46937424	0.092105339	0.31573044	0.44760577	0.20861667	0.25973486	0.10908749	0.096013702	0.23409441	0.099192139	0.17509288	0.25602304	0.27185666	0.2055367	0.18073241	0.050600273	0.11884048	0.39715228	0.057573582	0.1398764
4757	47.56	0.15086894	0.58046973	0.11992235	-0.013881721	0.64774329	0.1449026	-0.1242905	0.63068121	0.1980488	-0.23009662	0.62841199	0.01230729	-0.12136549	0.65097968	-0.18648288	-0.014462497	0.64615814	-0.13364217	-0.036619358	1.0366838	-0.0016551794	-0.093051041	1.0944971	0.17107825	-0.083941101	1.0970553	-0.16121851	-0.014535646	0.96223346	0.0058637404	-0.033082466	1.0238469	-0.064571571	0.33708008	0.46957907	0.092649086	0.31539343	0.44766055	0.20904457	0.25979541	0.1091563	0.096104874	0.2341636	0.099243423	0.17518655	0.25586304	0.27186066	0.20578197	0.18077745	0.050662605	0.11880831	0.39718564	0.057517269	0.13997646
4758	47.57	0.15062543	0.58048755	0.12018232	-0.013593636	0.64760315	0.14491725	-0.12414639	0.63093774	0.19798714	-0.22987344	0.6290191	0.012221197	-0.12112518	0.65116382	-0.18655257	-0.014155416	0.64604456	-0.13379732	-0.034160168	1.0364413	-0.001533957	-0.090407219	1.0944153	0.17115445	-0.081024551	1.0971665	-0.16116435	-0.012577096	0.96184686	0.0059444256	-0.030668646	1.02364	-0.064484962	0.3369216	0.46977261	0.093180992	0.31507047	0.44771152	0.20947453	0.25984845	0.10922935	0.096192139	0.23423473	0.099292236	0.17528922	0.25572493	0.27186191	0.20603784	0.18081946	0.050774082	0.11882821	0.39722202	0.057447987	0.14005418
